<mxfile host="app.diagrams.net" modified="2023-09-23T19:28:31.556Z" agent="Mozilla/5.0 (Windows NT 10.0; Win64; x64) AppleWebKit/537.36 (KHTML, like Gecko) Chrome/116.0.0.0 Safari/537.36" etag="wAWWAZ9U4Lwfmzzvp_IE" version="21.8.1" type="device">
  <diagram name="Page-1" id="0QZRplVPv6-d0dgBv4GJ">
    <mxGraphModel dx="1050" dy="662" grid="1" gridSize="10" guides="1" tooltips="1" connect="1" arrows="1" fold="1" page="1" pageScale="1" pageWidth="850" pageHeight="1100" math="0" shadow="0">
      <root>
        <mxCell id="0" />
        <mxCell id="1" parent="0" />
        <mxCell id="eFiI_gI_s5hOx_Ex_ja--2" style="edgeStyle=orthogonalEdgeStyle;rounded=0;orthogonalLoop=1;jettySize=auto;html=1;" edge="1" parent="1" source="eFiI_gI_s5hOx_Ex_ja--1">
          <mxGeometry relative="1" as="geometry">
            <mxPoint x="90" y="130" as="targetPoint" />
          </mxGeometry>
        </mxCell>
        <mxCell id="eFiI_gI_s5hOx_Ex_ja--1" value="START" style="rounded=0;whiteSpace=wrap;html=1;" vertex="1" parent="1">
          <mxGeometry x="30" y="20" width="120" height="60" as="geometry" />
        </mxCell>
        <mxCell id="eFiI_gI_s5hOx_Ex_ja--11" style="edgeStyle=orthogonalEdgeStyle;rounded=0;orthogonalLoop=1;jettySize=auto;html=1;" edge="1" parent="1" source="eFiI_gI_s5hOx_Ex_ja--3">
          <mxGeometry relative="1" as="geometry">
            <mxPoint x="230" y="160" as="targetPoint" />
          </mxGeometry>
        </mxCell>
        <mxCell id="eFiI_gI_s5hOx_Ex_ja--14" value="" style="edgeStyle=orthogonalEdgeStyle;rounded=0;orthogonalLoop=1;jettySize=auto;html=1;" edge="1" parent="1" source="eFiI_gI_s5hOx_Ex_ja--3" target="eFiI_gI_s5hOx_Ex_ja--13">
          <mxGeometry relative="1" as="geometry" />
        </mxCell>
        <mxCell id="eFiI_gI_s5hOx_Ex_ja--3" value="Game State is only state" style="rounded=0;whiteSpace=wrap;html=1;" vertex="1" parent="1">
          <mxGeometry x="30" y="130" width="140" height="60" as="geometry" />
        </mxCell>
        <mxCell id="eFiI_gI_s5hOx_Ex_ja--12" value="GameData = [key: &quot;gameState&quot;, deck: [ | id play |&lt;br&gt;&lt;span style=&quot;white-space: pre;&quot;&gt;&#x9;&lt;/span&gt;&lt;span style=&quot;white-space: pre;&quot;&gt;&#x9;&lt;/span&gt;&lt;span style=&quot;white-space: pre;&quot;&gt;&#x9;&lt;/span&gt;&lt;span style=&quot;white-space: pre;&quot;&gt;&#x9;&lt;/span&gt;&lt;span style=&quot;white-space: pre;&quot;&gt;&#x9;&lt;/span&gt;&lt;span style=&quot;white-space: pre;&quot;&gt;&#x9;&lt;span style=&quot;white-space: pre;&quot;&gt;&#x9;&lt;/span&gt; &lt;/span&gt;&amp;nbsp; &amp;nbsp; &amp;nbsp; 1&amp;nbsp;&amp;nbsp; &amp;nbsp; &amp;nbsp;0&lt;br&gt;&lt;span style=&quot;white-space: pre;&quot;&gt;&#x9;&lt;/span&gt;&lt;span style=&quot;white-space: pre;&quot;&gt;&#x9;&lt;/span&gt;&lt;span style=&quot;white-space: pre;&quot;&gt;&#x9;&lt;/span&gt;&lt;span style=&quot;white-space: pre;&quot;&gt;&#x9;&lt;/span&gt;&lt;span style=&quot;white-space: pre;&quot;&gt;&#x9;&lt;/span&gt;&amp;nbsp; &amp;nbsp; &amp;nbsp; &amp;nbsp; &amp;nbsp;&amp;nbsp;&lt;span style=&quot;white-space: pre;&quot;&gt;&#x9;&lt;/span&gt;&lt;span style=&quot;white-space: pre;&quot;&gt;&#x9;&lt;/span&gt;..&amp;nbsp; &amp;nbsp; &amp;nbsp; &amp;nbsp;..&lt;br&gt;&lt;span style=&quot;white-space: pre;&quot;&gt;&#x9;&lt;/span&gt;&lt;span style=&quot;white-space: pre;&quot;&gt;&#x9;&lt;/span&gt;&lt;span style=&quot;white-space: pre;&quot;&gt;&#x9;&lt;/span&gt;&lt;span style=&quot;white-space: pre;&quot;&gt;&#x9;&lt;/span&gt;&amp;nbsp; &amp;nbsp; &amp;nbsp; &amp;nbsp;&amp;nbsp;&lt;span style=&quot;white-space: pre;&quot;&gt;&#x9;&lt;/span&gt;&lt;span style=&quot;white-space: pre;&quot;&gt;&#x9;&lt;/span&gt;&amp;nbsp; &amp;nbsp; &amp;nbsp; &amp;nbsp; &amp;nbsp; &amp;nbsp; 52&amp;nbsp; &amp;nbsp; &amp;nbsp;0&amp;nbsp; ] ]&lt;br&gt;&lt;br&gt;&lt;br&gt;Cards = [ |id name value|&lt;br&gt;&amp;nbsp; &amp;nbsp; &amp;nbsp; &amp;nbsp; &amp;nbsp; &amp;nbsp; &amp;nbsp; 1&amp;nbsp; &quot;AS&quot;&amp;nbsp; &amp;nbsp; &amp;nbsp;11&lt;br&gt;&amp;nbsp; &amp;nbsp; &amp;nbsp; &amp;nbsp; &amp;nbsp; &amp;nbsp; &amp;nbsp;2&amp;nbsp; &quot;2S&quot;&amp;nbsp; &amp;nbsp; &amp;nbsp; 2&lt;br&gt;&amp;nbsp; &amp;nbsp; &amp;nbsp; &amp;nbsp; &amp;nbsp; &amp;nbsp; &amp;nbsp; ..&amp;nbsp; &amp;nbsp;...&amp;nbsp; &amp;nbsp; &amp;nbsp; &amp;nbsp; &amp;nbsp;..&lt;br&gt;&amp;nbsp; &amp;nbsp; &amp;nbsp; &amp;nbsp; &amp;nbsp; &amp;nbsp; &amp;nbsp; &amp;nbsp;52 &quot;KH&quot;&amp;nbsp; &amp;nbsp; &amp;nbsp; 10 ]" style="rounded=1;whiteSpace=wrap;html=1;" vertex="1" parent="1">
          <mxGeometry x="230" y="50" width="430" height="240" as="geometry" />
        </mxCell>
        <mxCell id="eFiI_gI_s5hOx_Ex_ja--16" value="" style="edgeStyle=orthogonalEdgeStyle;rounded=0;orthogonalLoop=1;jettySize=auto;html=1;" edge="1" parent="1" source="eFiI_gI_s5hOx_Ex_ja--13" target="eFiI_gI_s5hOx_Ex_ja--15">
          <mxGeometry relative="1" as="geometry" />
        </mxCell>
        <mxCell id="eFiI_gI_s5hOx_Ex_ja--13" value="Player requests to join" style="rounded=0;whiteSpace=wrap;html=1;" vertex="1" parent="1">
          <mxGeometry x="30" y="270" width="140" height="60" as="geometry" />
        </mxCell>
        <mxCell id="eFiI_gI_s5hOx_Ex_ja--18" value="" style="edgeStyle=orthogonalEdgeStyle;rounded=0;orthogonalLoop=1;jettySize=auto;html=1;" edge="1" parent="1" source="eFiI_gI_s5hOx_Ex_ja--15" target="eFiI_gI_s5hOx_Ex_ja--17">
          <mxGeometry relative="1" as="geometry" />
        </mxCell>
        <mxCell id="eFiI_gI_s5hOx_Ex_ja--20" value="" style="edgeStyle=orthogonalEdgeStyle;rounded=0;orthogonalLoop=1;jettySize=auto;html=1;" edge="1" parent="1" source="eFiI_gI_s5hOx_Ex_ja--15" target="eFiI_gI_s5hOx_Ex_ja--19">
          <mxGeometry relative="1" as="geometry" />
        </mxCell>
        <mxCell id="eFiI_gI_s5hOx_Ex_ja--15" value="Player is Given key" style="whiteSpace=wrap;html=1;rounded=0;" vertex="1" parent="1">
          <mxGeometry x="40" y="360" width="120" height="60" as="geometry" />
        </mxCell>
        <mxCell id="eFiI_gI_s5hOx_Ex_ja--27" value="" style="edgeStyle=orthogonalEdgeStyle;rounded=0;orthogonalLoop=1;jettySize=auto;html=1;" edge="1" parent="1" source="eFiI_gI_s5hOx_Ex_ja--17" target="eFiI_gI_s5hOx_Ex_ja--26">
          <mxGeometry relative="1" as="geometry" />
        </mxCell>
        <mxCell id="eFiI_gI_s5hOx_Ex_ja--29" value="" style="edgeStyle=orthogonalEdgeStyle;rounded=0;orthogonalLoop=1;jettySize=auto;html=1;" edge="1" parent="1" source="eFiI_gI_s5hOx_Ex_ja--17" target="eFiI_gI_s5hOx_Ex_ja--28">
          <mxGeometry relative="1" as="geometry" />
        </mxCell>
        <mxCell id="eFiI_gI_s5hOx_Ex_ja--17" value="Player State is created and can be toggled" style="whiteSpace=wrap;html=1;rounded=0;" vertex="1" parent="1">
          <mxGeometry x="40" y="500" width="120" height="60" as="geometry" />
        </mxCell>
        <mxCell id="eFiI_gI_s5hOx_Ex_ja--22" value="" style="edgeStyle=orthogonalEdgeStyle;rounded=0;orthogonalLoop=1;jettySize=auto;html=1;" edge="1" parent="1" source="eFiI_gI_s5hOx_Ex_ja--19" target="eFiI_gI_s5hOx_Ex_ja--21">
          <mxGeometry relative="1" as="geometry" />
        </mxCell>
        <mxCell id="eFiI_gI_s5hOx_Ex_ja--19" value="Game State makes hand" style="whiteSpace=wrap;html=1;rounded=0;" vertex="1" parent="1">
          <mxGeometry x="240" y="360" width="120" height="60" as="geometry" />
        </mxCell>
        <mxCell id="eFiI_gI_s5hOx_Ex_ja--25" style="edgeStyle=orthogonalEdgeStyle;rounded=0;orthogonalLoop=1;jettySize=auto;html=1;entryX=0;entryY=0.5;entryDx=0;entryDy=0;" edge="1" parent="1" source="eFiI_gI_s5hOx_Ex_ja--21" target="eFiI_gI_s5hOx_Ex_ja--23">
          <mxGeometry relative="1" as="geometry" />
        </mxCell>
        <mxCell id="eFiI_gI_s5hOx_Ex_ja--21" value="Gives two cards, and updates the play column of GameData" style="whiteSpace=wrap;html=1;rounded=0;" vertex="1" parent="1">
          <mxGeometry x="440" y="360" width="120" height="60" as="geometry" />
        </mxCell>
        <mxCell id="eFiI_gI_s5hOx_Ex_ja--23" value="Data1 = [key: &quot;player1&quot;, hand [3 8]" style="rounded=1;whiteSpace=wrap;html=1;" vertex="1" parent="1">
          <mxGeometry x="600" y="360" width="310" height="60" as="geometry" />
        </mxCell>
        <mxCell id="eFiI_gI_s5hOx_Ex_ja--26" value="Player can request more cards" style="whiteSpace=wrap;html=1;rounded=0;" vertex="1" parent="1">
          <mxGeometry x="240" y="500" width="120" height="60" as="geometry" />
        </mxCell>
        <mxCell id="eFiI_gI_s5hOx_Ex_ja--31" value="" style="edgeStyle=orthogonalEdgeStyle;rounded=0;orthogonalLoop=1;jettySize=auto;html=1;" edge="1" parent="1" source="eFiI_gI_s5hOx_Ex_ja--28" target="eFiI_gI_s5hOx_Ex_ja--30">
          <mxGeometry relative="1" as="geometry" />
        </mxCell>
        <mxCell id="eFiI_gI_s5hOx_Ex_ja--28" value="player can also hold" style="whiteSpace=wrap;html=1;rounded=0;" vertex="1" parent="1">
          <mxGeometry x="40" y="640" width="120" height="60" as="geometry" />
        </mxCell>
        <mxCell id="eFiI_gI_s5hOx_Ex_ja--33" value="" style="edgeStyle=orthogonalEdgeStyle;rounded=0;orthogonalLoop=1;jettySize=auto;html=1;" edge="1" parent="1" source="eFiI_gI_s5hOx_Ex_ja--30" target="eFiI_gI_s5hOx_Ex_ja--32">
          <mxGeometry relative="1" as="geometry" />
        </mxCell>
        <mxCell id="eFiI_gI_s5hOx_Ex_ja--30" value="game makes its own hand, and makes decisions until they hold" style="whiteSpace=wrap;html=1;rounded=0;" vertex="1" parent="1">
          <mxGeometry x="240" y="640" width="120" height="60" as="geometry" />
        </mxCell>
        <mxCell id="eFiI_gI_s5hOx_Ex_ja--32" value="winner decided" style="whiteSpace=wrap;html=1;rounded=0;" vertex="1" parent="1">
          <mxGeometry x="440" y="640" width="120" height="60" as="geometry" />
        </mxCell>
      </root>
    </mxGraphModel>
  </diagram>
</mxfile>
